<?xml version="1.0" encoding="UTF-8" standalone="no"?>
<!-- Created with Inkscape (http://www.inkscape.org/) -->
<svg xmlns:dc="http://purl.org/dc/elements/1.1/" xmlns:cc="http://creativecommons.org/ns#" xmlns:rdf="http://www.w3.org/1999/02/22-rdf-syntax-ns#" xmlns:svg="http://www.w3.org/2000/svg" xmlns="http://www.w3.org/2000/svg" xmlns:sodipodi="http://sodipodi.sourceforge.net/DTD/sodipodi-0.dtd" xmlns:inkscape="http://www.inkscape.org/namespaces/inkscape" id="svg2" version="1.1" inkscape:version="0.48.1 r9760" width="360.83826" height="344.83533" sodipodi:docname="RockArt-GeorgeSpiral.svg">
  <title id="title3790">Rock Art Saint George Sun</title>
  <metadata id="metadata8">
    <rdf:RDF>
      <cc:Work rdf:about="">
        <dc:format>image/svg+xml</dc:format>
        <dc:type rdf:resource="http://purl.org/dc/dcmitype/StillImage"/>
        <dc:title>Rock Art Saint George Sun</dc:title>
        <dc:source>http://en.wikipedia.org/wiki/File:Pictograph_tds.jpg</dc:source>
        <dc:description>Sun made from manually traced from photo near Saint George, Utah</dc:description>
        <dc:creator>
          <cc:Agent>
            <dc:title>Serious Tux</dc:title>
          </cc:Agent>
        </dc:creator>
        <dc:date>10 March 2011</dc:date>
        <dc:subject>
          <rdf:Bag>
            <rdf:li>petroglyph</rdf:li>
          </rdf:Bag>
        </dc:subject>
        <cc:license rdf:resource="http://creativecommons.org/licenses/publicdomain/"/>
      </cc:Work>
      <cc:License rdf:about="http://creativecommons.org/licenses/publicdomain/">
        <cc:permits rdf:resource="http://creativecommons.org/ns#Reproduction"/>
        <cc:permits rdf:resource="http://creativecommons.org/ns#Distribution"/>
        <cc:permits rdf:resource="http://creativecommons.org/ns#DerivativeWorks"/>
      </cc:License>
    </rdf:RDF>
  </metadata>
  <defs id="defs6"/>
  <sodipodi:namedview pagecolor="#ffffff" bordercolor="#666666" borderopacity="1" objecttolerance="10" gridtolerance="10" guidetolerance="10" inkscape:pageopacity="0" inkscape:pageshadow="2" inkscape:window-width="1850" inkscape:window-height="1025" id="namedview4" showgrid="false" inkscape:zoom="2" inkscape:cx="164.95711" inkscape:cy="253.16231" inkscape:window-x="67" inkscape:window-y="24" inkscape:window-maximized="0" inkscape:current-layer="svg2" fit-margin-top="0" fit-margin-left="0" fit-margin-right="0" fit-margin-bottom="0"/>
  <path style="fill:#000000;fill-opacity:1;stroke:none" d="m 234.74888,80.517282 c -17.43848,2.76867 -33.75759,5.09273 -49.49747,11.3137 -9.13577,3.61078 -16.81554,10.175358 -25.45584,14.849238 -11.58922,6.26907 -24.51034,10.19456 -35.35535,17.67767 -10.02257,6.91563 -19.47991,15.07075 -26.870058,24.74874 -9.021043,11.81377 -17.115301,25.1257 -20.506091,39.59798 -3.06525,13.08281 -0.95114,26.97071 0.7071,40.30509 1.40406,11.2904 -0.51641,25.44658 7.778181,33.23402 16.554428,15.54226 44.501198,12.53991 67.175138,11.3137 19.07419,-1.03153 38.22439,-6.70954 55.15433,-15.55634 12.17012,-6.35954 21.72561,-16.85367 31.81981,-26.16295 7.47462,-6.8934 14.90063,-13.94909 21.2132,-21.92031 11.64955,-14.71052 24.36514,-29.61035 30.40559,-47.37616 3.57897,-10.52626 6.4798,-22.73266 2.82843,-33.23402 -3.50484,-10.07993 -11.31777,-22.12006 -21.92031,-23.33452 -27.84967,-3.19003 -52.58544,0.84234 -77.07464,9.19239 -20.00987,6.82273 -39.60571,17.47121 -54.44722,32.52691 -12.23236,12.40889 -23.83797,27.9862 -26.16295,45.25483 -1.98337,14.73129 1.49493,31.97395 11.31371,43.13352 7.89307,8.9709 21.33113,12.38664 33.23401,13.43503 12.47944,1.09917 25.35325,-2.61945 36.76956,-7.77818 13.66078,-6.17295 26.04243,-15.7201 36.06244,-26.87006 8.05185,-8.95984 16.05715,-19.2935 18.38478,-31.11269 2.20921,-11.21792 -1.50948,-29.86829 -4.94975,-33.94113 -5.81656,-6.88607 -32.58418,-2.02204 -48.08326,2.12132 -13.85083,3.70273 -28.79443,8.96405 -38.18377,19.79899 -7.02973,8.11204 -14.21972,20.29779 -10.6066,30.40559 3.34725,9.36402 15.58839,14.3226 25.45585,15.55635 13.46392,1.68342 26.50341,-4.05027 38.89087,-12.02081 5.72084,-3.681 11.04331,-22.79682 -4.94975,-19.79899 -9.22746,1.72965 -27.10141,7.14357 -31.1127,4.24263 -3.45899,-2.50152 -3.41045,-8.95469 -1.41421,-12.72792 4.2404,-8.01506 14.87314,-9.25663 24.04163,-12.72791 14.82275,-5.61205 26.90649,-3.30839 34.64824,4.24263 7.05346,6.87969 4.35661,12.84261 2.82842,19.09189 -2.00468,8.19777 -8.8696,14.55075 -14.84924,20.50609 -8.01801,7.98543 -17.10428,15.51247 -27.57717,19.79899 -9.93425,4.06605 -21.49528,7.88682 -31.8198,4.94975 -12.54084,-3.56756 -25.3253,-13.17271 -29.69849,-25.45584 -4.01635,-11.28086 0.61547,-24.85088 6.36396,-35.35534 6.32535,-11.55859 17.6134,-20.22531 28.99138,-26.87006 16.02769,-9.36019 34.62759,-14.57459 53.03301,-16.97056 13.80789,-1.79748 30.06425,-5.49765 41.7193,2.12132 6.1761,4.03735 9.60233,12.42633 9.8995,19.79899 0.68572,17.01231 -10.19191,32.86136 -19.09189,47.37615 -6.37472,10.3964 -15.10728,19.27658 -24.04163,27.57717 -9.49732,8.82362 -19.19934,18.22301 -31.1127,23.33452 -18.2323,7.82268 -39.10479,13.0675 -58.68986,9.89949 -12.90681,-2.08776 -26.5428,-8.1258 -34.64823,-18.38477 -7.548948,-9.55464 -9.959868,-23.20261 -9.192388,-35.35534 0.88,-13.93449 8.480968,-26.85412 15.556348,-38.89087 4.92473,-8.37804 11.05539,-16.24584 18.38478,-22.62742 15.79198,-13.74982 34.62177,-23.98681 53.74011,-32.52691 18.44892,-8.24107 34.72381,-9.23759 57.98276,-17.677668 4.71054,-1.70934 10.62056,-15.53678 -7.07107,-12.72792 z" id="path3007" inkscape:connector-curvature="0" sodipodi:nodetypes="saaaaaaaaaaaaasaaaaaaaasaaaasssassaaaaaaaaaaaaaaaaaaass"/>
  <path style="fill:#000000;fill-opacity:1;stroke:none" d="m 196.12573,64.893942 c -3.66904,-16.34537 -4.02831,-23.60095 -5.36396,-35.63351 -1.08159,-9.74378 -4.42604,-26.1267902 4.94974,-28.99138024 6.85576,-2.09463996 13.5318,8.50984004 14.84925,15.55635024 2.88131,15.41099 1.44638,19.85067 1.82842,36.34062 0.15719,6.7846 -0.59842,17.0522 -7.07107,19.09188 -3.55447,1.1201 -8.37614,-2.72767 -9.19238,-6.36396 z" id="path2983" inkscape:connector-curvature="0" sodipodi:nodetypes="ssassas"/>
  <path style="fill:#000000;fill-opacity:1;stroke:none" d="m 262.17955,75.929472 c -6.04578,-4.21026 -0.23259,-15.21897 2.82843,-21.92031 5.58375,-12.22424 8.10116,-20.02961 14.00609,-30.40559 2.64428,-4.64646 10.06545,-9.50172 14.59189,-6.65685 4.70779,2.95885 2.36202,11.49673 0.34314,16.67767 -5.26628,13.51458 -9.48002,19.84331 -16.92031,34.52691 -2.5256,4.98433 -10.26388,10.9714 -14.84924,7.77817 z" id="path2985" inkscape:connector-curvature="0" sodipodi:nodetypes="assassa"/>
  <path style="fill:#000000;fill-opacity:1;stroke:none" d="m 309.55571,138.11324 c -2.89472,-5.93563 4.93746,-14.54454 11.3137,-16.26346 9.51986,-2.56638 18.75273,-3.88599 28.07717,-4.64213 4.53943,-0.36811 10.85356,2.48723 11.76345,6.94975 1.00726,4.94003 -4.10158,10.86942 -8.97056,12.17767 -8.59941,2.31057 -19.60335,2.34401 -29.45584,2.48528 -4.24875,0.0609 -10.86534,3.1121 -12.72792,-0.70711 z" id="path2987" inkscape:connector-curvature="0" sodipodi:nodetypes="assasaa"/>
  <path style="fill:#000000;fill-opacity:1;stroke:none" d="m 291.87804,207.45134 c 3.36831,-3.3315 10.27082,-4.14505 14.14213,-1.41422 9.795,6.90941 15.91071,12.89302 24.04163,21.92031 3.15883,3.50707 2.7797,10.96095 -0.7071,14.14214 -4.18257,3.81598 -12.86803,3.19478 -16.97057,-0.70711 -6.84416,-6.50943 -13.9761,-13.14626 -21.92031,-21.2132 -2.99524,-3.04151 -1.62078,-9.72609 1.41422,-12.72792 z" id="path2991" inkscape:connector-curvature="0" sodipodi:nodetypes="assassa"/>
  <path style="fill:#000000;fill-opacity:1;stroke:none" d="m 252.03132,261.95491 c 3.78201,-2.14133 9.03956,0.52954 12.72792,2.82842 7.68488,4.78984 13.448,12.87105 16.97056,21.21321 2.21765,5.25186 6.31244,13.10604 2.12132,16.97056 -4.24804,3.91701 -12.88188,0.54756 -16.97056,-3.53553 -6.52946,-6.52052 -13.37952,-15.12241 -18.38478,-26.87006 -1.46079,-3.42856 0.2925,-8.77042 3.53554,-10.6066 z" id="path2995" inkscape:connector-curvature="0" sodipodi:nodetypes="aaaassa"/>
  <path style="fill:#000000;fill-opacity:1;stroke:none" d="m 190.76177,288.76862 c 6.03533,-0.13867 11.55713,8.11012 11.3137,14.14213 -0.44369,10.99431 0.995,24.95057 -0.7071,33.23402 -0.98719,4.80427 -7.28706,9.76868 -12.02082,8.48528 -5.49754,-1.49048 -7.43756,-9.87215 -7.07107,-15.55635 0.65935,-10.22644 -0.9827,-22.33281 2.82843,-32.52691 1.12265,-3.0029 2.45181,-7.70453 5.65686,-7.77817 z" id="path2997" inkscape:connector-curvature="0" sodipodi:nodetypes="assasaa"/>
  <path style="fill:#000000;fill-opacity:1;stroke:none" d="m 135.09272,289.68283 c 5.13412,1.89656 4.00777,10.41359 4.15685,15.88478 0.20969,7.69531 -0.61754,16.05234 -4.62132,22.62741 -2.63041,4.3197 -6.87558,10.61343 -11.8137,9.52082 -5.27919,-1.16807 -7.56074,-9.16459 -7.15686,-14.55635 0.37528,-5.00993 1.97444,-13.98871 3.62132,-22.49138 0.8964,-4.62802 9.79307,-13.20932 15.81371,-10.98528 z" id="path2999" inkscape:connector-curvature="0" sodipodi:nodetypes="aaaassa"/>
  <path style="fill:#000000;fill-opacity:1;stroke:none" d="m 128.50336,100.12648 c 4.77775,-3.663758 1.4709,-12.763228 -1.5,-17.999998 -8.04938,-14.18856 -14.62731,-26.51441 -25.5,-39 -3.727828,-4.28083 -13.504677,-3.47269 -16.999998,1 -3.341266,4.27556 -0.08523,11.53617 3,16 8.838416,12.78776 17.649008,23.68349 28.499998,35.5 2.99529,3.26181 8.98585,7.194788 12.5,4.499998 z" id="path3003" inkscape:connector-curvature="0" sodipodi:nodetypes="assassa"/>
  <path style="fill:#000000;fill-opacity:1;stroke:none" d="m 81.503362,139.12648 c 2.889108,-3.00698 1.695772,-8.95494 -0.5,-12.5 -7.250146,-11.70532 -15.521429,-23.57896 -25.5,-33.499998 -3.902106,-3.87961 -13.064633,-4.79838 -16.5,-0.5 -3.331362,4.16824 0.865098,11.182058 4,15.499998 8.489863,11.69374 15.901847,20.83501 27.5,31 2.75749,2.41675 8.459616,2.64403 11,0 z" id="path3005" inkscape:connector-curvature="0" sodipodi:nodetypes="assassa"/>
  <path style="fill:#000000;fill-opacity:1;stroke:none" d="m 64.503362,191.62648 c 0.642238,-5.50291 -5.970726,-11.65133 -11.5,-12 -13.884719,-0.87555 -27.125491,-0.56507 -40.5,-0.5 -5.1342471,0.025 -12.68573911,3.86905 -12.50000011,9 0.184068,5.08478 7.92347601,7.65679 13.00000011,8 15.748939,1.06476 26.703561,3.40049 43,1 3.338716,-0.4918 8.108793,-2.14801 8.5,-5.5 z" id="path3008" inkscape:connector-curvature="0" sodipodi:nodetypes="assassa"/>
  <path style="fill:#000000;fill-opacity:1;stroke:none" d="m 59.503362,238.12648 c -3.107453,-4.33774 -10.90876,-1.47105 -16,0.5 -11.509602,4.45588 -17.107309,7.95942 -28.5,14 -3.978447,2.10943 -3.511216,10.15181 -0.5,13.5 3.23973,3.60227 10.034084,2.87824 14.5,1 8.027977,-3.37635 14.301397,-7.27194 24.5,-13 5.73397,-3.22049 9.317142,-11.36956 6,-16 z" id="path3010" inkscape:connector-curvature="0" sodipodi:nodetypes="assassa"/>
  <path style="fill:#000000;fill-opacity:1;stroke:none" d="m 85.503362,279.12648 c 4.506491,1.80197 5.719288,9.46132 4,14 -3.038955,8.02241 -4.844364,17.94959 -10.5,25 -3.067199,3.82362 -7.50635,10.45829 -12,8.5 -4.624225,-2.01519 -3.557306,-10.20216 -2,-15 2.890201,-8.9043 5.365747,-20.01572 12,-27.5 2.180496,-2.45988 5.447783,-6.22046 8.5,-5 z" id="path3012" inkscape:connector-curvature="0" sodipodi:nodetypes="asaasaa"/>
</svg>